<?xml version="1.0" standalone="no"?>
<!DOCTYPE svg PUBLIC "-//W3C//DTD SVG 20010904//EN"
 "http://www.w3.org/TR/2001/REC-SVG-20010904/DTD/svg10.dtd">
<svg version="1.0" xmlns="http://www.w3.org/2000/svg"
 width="740.000000pt" height="740.000000pt" viewBox="0 0 740.000000 740.000000"
 preserveAspectRatio="xMidYMid meet">

<g transform="translate(0.000000,740.000000) scale(0.100000,-0.100000)"
fill="#000000" stroke="none">
<path d="M5912 5134 c-226 -104 -556 -203 -825 -249 -83 -14 -154 -29 -158
-33 -3 -4 -39 -56 -80 -117 -154 -229 -372 -478 -577 -658 -353 -310 -743
-535 -1002 -576 -110 -18 -177 -13 -268 18 -228 80 -391 270 -463 541 -33 123
-33 323 -1 433 67 231 221 402 435 482 66 25 53 29 -17 5 -219 -75 -377 -223
-458 -428 -17 -42 -36 -86 -42 -97 -7 -13 -11 -88 -12 -205 -1 -252 -2 -262
-15 -254 -6 3 -9 16 -7 29 3 13 0 22 -8 22 -9 0 -12 -8 -8 -23 8 -31 -3 -49
-22 -33 -8 6 -14 8 -14 3 0 -4 12 -18 28 -30 20 -17 24 -25 15 -34 -10 -11 21
-102 77 -225 5 -11 21 -51 36 -90 44 -114 114 -240 170 -305 86 -100 232 -224
311 -264 17 -9 34 -20 37 -25 7 -11 -103 47 -126 67 -10 8 -18 11 -18 5 0 -14
144 -97 236 -136 227 -97 437 -146 778 -183 l59 -6 -7 -145 c-6 -113 -5 -143
5 -137 15 9 9 -33 -26 -192 -34 -150 -153 -483 -176 -492 -5 -2 -9 -9 -9 -16
0 -7 -13 -39 -30 -71 -37 -71 -38 -79 -5 -35 14 19 25 30 25 26 0 -16 -42 -66
-56 -66 -8 0 -14 -6 -14 -12 0 -7 -6 -24 -13 -38 -13 -25 -13 -25 37 -28 28
-2 52 -7 54 -12 2 -5 10 -6 18 -3 8 3 14 1 14 -5 0 -6 -6 -12 -12 -15 -7 -2
-10 -8 -6 -12 4 -4 17 3 30 14 12 12 29 21 38 19 8 -1 47 29 87 68 103 100
313 358 313 385 0 7 3 9 6 6 8 -8 -13 -63 -37 -98 -10 -14 -16 -29 -12 -33 4
-3 14 6 24 21 l18 26 -4 -48 c-1 -26 1 -42 5 -35 13 21 49 -23 43 -53 -4 -19
3 -33 28 -57 19 -17 28 -29 22 -25 -9 4 -11 1 -7 -10 5 -12 10 -13 20 -4 8 6
11 15 8 20 -3 5 -1 9 4 9 21 0 19 -15 -7 -49 -31 -39 -40 -81 -13 -58 39 31
142 162 138 174 -3 7 0 12 5 10 14 -3 101 148 135 235 l27 68 -43 117 c-119
322 -262 580 -428 771 -58 67 -66 90 -15 42 18 -17 37 -30 43 -30 6 0 8 -4 5
-10 -3 -5 -1 -10 6 -10 6 0 30 -21 52 -46 22 -25 51 -50 65 -55 13 -5 26 -18
29 -29 3 -11 9 -18 13 -15 5 3 6 14 3 24 -6 22 35 51 46 33 4 -7 12 -8 21 -2
13 8 13 10 0 10 -11 0 -11 3 -2 12 10 10 15 10 21 -1 7 -11 11 -9 21 9 8 15
18 20 31 17 12 -3 22 0 26 9 6 16 34 19 49 4 16 -16 32 3 27 32 -3 15 -9 25
-14 22 -5 -3 -6 2 -3 10 6 15 -47 125 -103 214 -19 28 -31 52 -28 52 4 0 24
-19 46 -42 21 -24 39 -38 39 -32 0 6 -3 14 -7 18 -25 25 -5 40 69 53 59 9 113
30 110 42 -1 7 2 9 9 5 6 -3 15 0 20 7 7 11 11 11 17 1 5 -6 20 -11 34 -10 22
2 25 5 17 20 -6 10 -15 15 -21 12 -7 -5 -8 -2 -3 5 5 9 16 5 38 -16 l30 -28
-20 30 c-12 17 -39 47 -61 69 l-40 38 -129 -30 c-341 -82 -675 -101 -1018 -57
-152 19 -313 53 -345 72 l-25 14 25 -6 c44 -12 305 -18 387 -10 43 5 69 10 59
13 -15 3 -16 6 -5 13 10 6 3 9 -21 10 -26 1 -29 3 -11 6 16 3 20 7 12 12 -7 5
1 9 19 10 66 4 78 6 75 12 -2 3 24 11 58 18 104 21 363 104 512 163 162 65
408 191 387 199 -5 2 10 16 34 31 24 15 44 23 44 18 0 -5 -9 -11 -19 -15 -11
-3 -25 -13 -33 -22 -10 -13 -7 -13 17 2 46 29 79 55 69 55 -4 0 37 30 91 66
189 127 336 247 516 421 69 68 129 120 133 116 4 -4 5 -1 2 7 -4 9 13 35 42
65 69 74 191 229 248 315 56 85 128 210 122 214 -1 2 -36 -12 -76 -30z m-3447
-1124 c3 -5 1 -10 -4 -10 -6 0 -11 5 -11 10 0 6 2 10 4 10 3 0 8 -4 11 -10z
m-25 -106 c0 -8 -4 -12 -10 -9 -5 3 -10 10 -10 16 0 5 5 9 10 9 6 0 10 -7 10
-16z m645 -904 c3 -6 -1 -7 -9 -4 -18 7 -21 14 -7 14 6 0 13 -4 16 -10z m1289
-111 c-3 -5 -10 -7 -15 -3 -5 3 -7 10 -3 15 3 5 10 7 15 3 5 -3 7 -10 3 -15z
m-384 -109 c0 -5 -2 -10 -4 -10 -3 0 -8 5 -11 10 -3 6 -1 10 4 10 6 0 11 -4
11 -10z m-3 -87 c-2 -16 -4 -5 -4 22 0 28 2 40 4 28 2 -13 2 -35 0 -50z m0
-95 c-2 -13 -4 -5 -4 17 -1 22 1 32 4 23 2 -10 2 -28 0 -40z m-10 -70 c-3 -7
-5 -2 -5 12 0 14 2 19 5 13 2 -7 2 -19 0 -25z m296 -493 c-3 -9 -8 -14 -10
-11 -3 3 -2 9 2 15 9 16 15 13 8 -4z m150 -280 c-3 -9 -8 -14 -10 -11 -3 3 -2
9 2 15 9 16 15 13 8 -4z m-10 -47 c-11 -13 -33 -38 -48 -56 -16 -17 -31 -30
-34 -27 -2 3 17 28 44 55 50 50 76 69 38 28z"/>
<path d="M2432 4125 c0 -16 2 -22 5 -12 2 9 2 23 0 30 -3 6 -5 -1 -5 -18z"/>
<path d="M2385 4020 c3 -5 8 -10 11 -10 2 0 4 5 4 10 0 6 -5 10 -11 10 -5 0
-7 -4 -4 -10z"/>
<path d="M4595 3260 c-18 -8 -17 -9 8 -9 15 -1 27 4 27 9 0 12 -8 12 -35 0z"/>
<path d="M3951 2448 c0 -15 -8 -57 -16 -94 -9 -36 -14 -69 -11 -71 3 -3 8 8
11 23 3 16 11 47 16 70 6 22 9 54 6 70 -4 29 -4 29 -6 2z"/>
<path d="M3900 2208 c-7 -29 -17 -61 -21 -70 -5 -9 -5 -19 -1 -22 8 -5 46 133
38 141 -2 2 -9 -20 -16 -49z"/>
<path d="M3836 2025 c-9 -26 -7 -32 5 -12 6 10 9 21 6 23 -2 3 -7 -2 -11 -11z"/>
<path d="M3800 1919 c-12 -23 -20 -43 -18 -45 3 -2 14 17 26 41 27 56 20 60
-8 4z"/>
<path d="M4250 1546 c7 -7 13 -7 20 0 6 6 3 10 -10 10 -13 0 -16 -4 -10 -10z"/>
<path d="M3660 1540 c0 -5 5 -10 10 -10 6 0 10 5 10 10 0 6 -4 10 -10 10 -5 0
-10 -4 -10 -10z"/>
<path d="M3631 1517 c-13 -21 -12 -21 5 -5 10 10 16 20 13 22 -3 3 -11 -5 -18
-17z"/>
<path d="M3794 1498 c-21 -23 -30 -36 -19 -31 25 14 70 61 64 68 -3 2 -23 -14
-45 -37z"/>
</g>
</svg>
